# xmcd
#
# Track frame offsets: 
#        150
#        31958
#        56716
#        78280
#        98334
#        124966
#        145957
#        170760
#
# Disc length: 2481 seconds
#
# Revision: 0
# Processed by: cddbd v1.5.2PL0 Copyright (c) Steve Scherf et al.
# Submitted via: ExactAudioCopy v0.99pb5
#
DISCID=6609af08
DTITLE=Ebo Taylor - Appia Kwa Bridge
DYEAR=2012
DGENRE=Folk
TTITLE0=Ayesama
TTITLE1=Abonsam
TTITLE2=Nsu Na Kwan
TTITLE3=Yaa Amponsah
TTITLE4=Assomdwee
TTITLE5=Kruman Dey
TTITLE6=Appia Kwa Bridge
TTITLE7=Barrima
EXTD=
EXTT0=
EXTT1=
EXTT2=
EXTT3=
EXTT4=
EXTT5=
EXTT6=
EXTT7=
PLAYORDER=
